<?xml version="1.0" standalone="no"?>
<!DOCTYPE svg PUBLIC "-//W3C//DTD SVG 20010904//EN"
 "http://www.w3.org/TR/2001/REC-SVG-20010904/DTD/svg10.dtd">
<svg version="1.0" xmlns="http://www.w3.org/2000/svg"
 width="512.000000pt" height="512.000000pt" viewBox="0 0 512.000000 512.000000"
 preserveAspectRatio="xMidYMid meet">
<metadata>
Created by potrace 1.11, written by Peter Selinger 2001-2013
</metadata>
<g transform="translate(0.000000,512.000000) scale(0.100000,-0.100000)"
fill="#000000" stroke="none">
<path d="M0 2560 l0 -2560 2560 0 2560 0 0 2560 0 2560 -2560 0 -2560 0 0
-2560z m1390 1785 l0 -125 -129 0 c-117 0 -131 -2 -162 -23 -42 -28 -75 -86
-90 -156 -7 -36 -12 -220 -13 -530 l-1 -476 -28 -80 c-16 -44 -44 -105 -62
-136 -53 -87 -159 -177 -227 -194 -40 -10 -35 -21 22 -41 106 -38 211 -151
259 -278 35 -93 41 -192 41 -635 0 -449 4 -505 44 -581 40 -76 58 -84 209 -90
l132 -5 3 -123 3 -124 -184 4 -183 3 -76 38 c-120 59 -204 164 -253 317 -16
48 -19 115 -24 545 -6 470 -7 492 -28 548 -33 87 -67 139 -124 191 -46 41
-122 76 -166 76 -10 0 -13 30 -13 133 l0 134 58 16 c109 30 188 115 240 258
l27 74 6 490 c6 529 5 517 65 636 63 125 170 216 289 245 28 7 121 13 208 13
l157 1 0 -125z m2770 83 c103 -51 169 -116 223 -223 50 -99 50 -103 57 -620 8
-527 8 -536 64 -649 51 -103 128 -169 217 -184 l44 -8 3 -139 2 -140 -34 -2
c-81 -4 -183 -89 -236 -197 -57 -115 -59 -139 -60 -626 0 -416 -1 -450 -20
-519 -28 -101 -60 -159 -125 -230 -108 -116 -189 -143 -416 -139 l-154 3 0
120 0 120 132 5 c155 6 172 14 215 100 42 84 49 183 48 654 -2 470 -1 479 67
608 47 89 129 170 216 212 l68 33 -63 23 c-84 30 -181 126 -227 223 -57 119
-61 158 -61 617 0 480 -7 569 -47 649 -44 87 -61 95 -216 101 l-132 5 -3 123
-3 124 183 -4 183 -3 75 -37z m-1395 -779 c316 -32 488 -143 569 -368 19 -54
20 -86 26 -741 3 -377 9 -692 13 -701 16 -32 53 -42 127 -36 l70 6 0 -129 c0
-123 -1 -130 -22 -141 -67 -36 -247 -52 -330 -29 -96 27 -164 118 -175 235
l-6 64 -82 -77 c-99 -94 -218 -159 -361 -199 -92 -26 -111 -28 -289 -27 -179
0 -195 2 -280 28 -120 37 -178 69 -250 141 -110 110 -163 265 -152 446 12 197
87 334 236 433 120 80 304 135 610 181 339 51 389 63 470 118 62 43 85 99 78
193 -11 149 -91 245 -237 284 -126 34 -346 29 -470 -11 -164 -52 -239 -140
-259 -303 l-6 -51 -173 -3 -173 -2 6 57 c27 240 131 408 320 519 172 100 447
143 740 113z"/>
<path d="M2968 2580 c-57 -31 -133 -47 -390 -85 -320 -48 -405 -75 -495 -158
-56 -52 -81 -99 -92 -179 -22 -155 45 -273 186 -329 53 -22 73 -24 223 -24
155 1 170 2 245 29 108 37 181 84 253 160 80 86 103 145 113 296 10 152 11
310 2 310 -5 -1 -25 -10 -45 -20z"/>
</g>
</svg>
