<svg height="512pt" preserveAspectRatio="xMidYMid meet" viewBox="0 0 512 512" width="512pt" xmlns="http://www.w3.org/2000/svg"><g transform="matrix(.1 0 0 -.1 0 512)"><path d="m1026 4225c-167-34-305-185-352-385-3-14-8-230-9-480-2-250-6-466-9-480s-8-38-12-55c-30-146-144-280-259-306l-55-12v-134c0-73 3-133 8-134 81-9 138-37 195-98 67-71 103-152 123-271 4-25 8-241 9-480s5-453 10-475c4-22 25-77 46-123 49-106 129-189 226-235l68-31 180-1h180v118c0 64-2 117-5 117-3 1-60 2-126 3-116 2-123 4-158 30-41 32-70 83-87 154-8 31-12 206-14 508-2 303-7 482-15 525-31 170-143 322-272 371-32 12-58 23-58 26 0 2 24 15 53 28 101 44 210 168 253 286 15 43 18 54 30 114 4 17 8 239 9 495 2 256 5 472 8 480 2 8 7 31 11 50 10 41 30 82 54 111 35 42 70 51 196 53l121 1 1 118c0 64-2 117-5 118-38 6-306 1-345-6z"/><path d="m3719 4228c-3-20-5-214-2-223 2-7 50-11 122-12 157-1 197-22 235-126 29-77 34-159 35-601 1-243 4-452 6-466 11-59 15-75 26-109 22-66 74-151 123-201 48-49 134-100 168-100s18-17-44-49c-35-17-76-43-93-59-91-84-156-207-179-337-3-16-6-228-7-470-2-485-8-555-55-629-45-71-70-80-209-81-66 0-122-3-125-7s-5-58-5-120v-113l160-1c102-1 178 3 210 11 178 46 321 232 339 440 3 28 5 238 6 467 1 386 2 422 21 490 51 181 158 291 302 307 4 1 7 62 7 136v134l-37 6c-92 14-179 86-232 191-56 111-61 158-61 636-1 482-5 519-64 635-62 123-154 206-265 239-41 12-99 17-218 18-90 1-164-2-164-6z"/><path d="m2477 3424c-1-1-29-4-62-7-366-36-613-217-684-502-18-71-19-77-22-131l-3-49h168 169l4 25c9 64 24 123 44 164 61 130 249 206 494 200 273-8 414-104 431-296 11-115-25-187-117-234-50-25-176-58-264-68-245-29-498-81-638-133-63-23-173-88-207-123-87-88-138-187-155-304-36-247 31-449 188-564 89-66 144-89 287-118 69-14 310-22 328-10 4 2 30 7 57 10 185 21 368 115 507 261l38 40-1-30c-5-142 80-258 206-280 95-17 230-2 298 32l27 14v130 131l-27-7c-83-22-155-7-168 35-16 50-17 112-20 715-2 352-5 647-7 655-3 8-8 31-12 50-27 119-138 252-258 309-81 38-196 68-303 77-76 6-293 12-298 8zm538-1251c-1-158-5-208-19-250-72-215-295-352-581-358-217-4-344 54-407 184-32 67-30 190 6 263 31 65 39 76 98 120 45 34 150 80 213 92 81 16 58 13 290 46 190 26 280 46 340 74 27 14 53 25 56 25 3 1 5-88 4-196z"/></g></svg>